<svg xmlns="http://www.w3.org/2000/svg" width="1440" height="1000" viewBox="0 0 1440 1000">
  <g font-family="Helvetica, Arial, sans-serif" fill="none" stroke="#222" stroke-width="1.2">
    <rect width="1440" height="1000" fill="#fff"/>
    <!-- Header card -->
    <rect x="80" y="60" width="1280" height="220" rx="24" fill="#f0f0f0" stroke="#bbb"/>
    <rect x="120" y="90" width="120" height="28" rx="14" fill="#e0e0e0" stroke="#aaa"/>
    <text x="180" y="109" text-anchor="middle" font-size="12" font-weight="600" fill="#222" stroke="none">Design x Code</text>
    <rect x="250" y="90" width="80" height="28" rx="14" fill="#222" stroke="none"/>
    <text x="290" y="109" text-anchor="middle" font-size="11" font-weight="600" fill="#fff" stroke="none">In progress</text>
    <text x="120" y="155" font-size="32" font-style="italic" font-weight="800" fill="#222" stroke="none">Design System Sprint</text>
    <rect x="120" y="180" width="280" height="5" rx="2.5" fill="#ccc" stroke="none"/>
    <rect x="120" y="195" width="200" height="5" rx="2.5" fill="#ccc" stroke="none"/>
    <!-- Meta grid -->
    <text x="120" y="240" font-size="10" font-weight="600" fill="#888" stroke="none">CLIENT</text>
    <text x="120" y="258" font-size="13" fill="#222" stroke="none">Internal</text>
    <text x="340" y="240" font-size="10" font-weight="600" fill="#888" stroke="none">TIMELINE</text>
    <text x="340" y="258" font-size="13" fill="#222" stroke="none">8 weeks</text>
    <text x="560" y="240" font-size="10" font-weight="600" fill="#888" stroke="none">FORMAT</text>
    <text x="560" y="258" font-size="13" fill="#222" stroke="none">Design System</text>
    <text x="780" y="240" font-size="10" font-weight="600" fill="#888" stroke="none">AUDIENCE</text>
    <text x="780" y="258" font-size="13" fill="#222" stroke="none">Engineering team</text>

    <!-- 4 info cards -->
    <rect x="80" y="310" width="620" height="140" rx="16" fill="#f8f8f8" stroke="#bbb"/>
    <text x="110" y="345" font-size="11" font-weight="600" fill="#888" stroke="none">THE GOAL</text>
    <rect x="110" y="365" width="500" height="5" rx="2.5" fill="#ddd" stroke="none"/>
    <rect x="110" y="380" width="400" height="5" rx="2.5" fill="#ddd" stroke="none"/>
    <rect x="110" y="395" width="300" height="5" rx="2.5" fill="#ddd" stroke="none"/>

    <rect x="740" y="310" width="620" height="140" rx="16" fill="#f8f8f8" stroke="#bbb"/>
    <text x="770" y="345" font-size="11" font-weight="600" fill="#888" stroke="none">TOOLS &amp; MATERIALS</text>
    <rect x="770" y="365" width="80" height="24" rx="12" fill="#e0e0e0" stroke="#aaa"/>
    <text x="810" y="382" text-anchor="middle" font-size="11" fill="#222" stroke="none">Figma</text>
    <rect x="860" y="365" width="80" height="24" rx="12" fill="#e0e0e0" stroke="#aaa"/>
    <text x="900" y="382" text-anchor="middle" font-size="11" fill="#222" stroke="none">React</text>
    <rect x="950" y="365" width="80" height="24" rx="12" fill="#e0e0e0" stroke="#aaa"/>
    <text x="990" y="382" text-anchor="middle" font-size="11" fill="#222" stroke="none">Storybook</text>

    <rect x="80" y="470" width="620" height="160" rx="16" fill="#f8f8f8" stroke="#bbb"/>
    <text x="110" y="505" font-size="11" font-weight="600" fill="#888" stroke="none">DELIVERABLE</text>
    <text x="110" y="530" font-size="13" fill="#222" stroke="none">Token architecture doc</text>
    <text x="110" y="555" font-size="13" fill="#222" stroke="none">Component library (20+ components)</text>
    <text x="110" y="580" font-size="13" fill="#222" stroke="none">Usage guidelines</text>

    <rect x="740" y="470" width="620" height="160" rx="16" fill="#f8f8f8" stroke="#bbb"/>
    <text x="770" y="505" font-size="11" font-weight="600" fill="#888" stroke="none">EXPECTED OUTCOME</text>
    <rect x="770" y="525" width="500" height="5" rx="2.5" fill="#ddd" stroke="none"/>
    <rect x="770" y="540" width="400" height="5" rx="2.5" fill="#ddd" stroke="none"/>
    <rect x="770" y="555" width="300" height="5" rx="2.5" fill="#ddd" stroke="none"/>

    <!-- Bottom actions -->
    <rect x="80" y="660" width="240" height="44" rx="22" fill="#f0f0f0" stroke="#bbb"/>
    <text x="200" y="687" text-anchor="middle" font-size="13" fill="#222" stroke="none">Log a milestone</text>
    <text x="400" y="687" font-size="13" fill="#888" stroke="none">View Growth Log</text>
    <text x="580" y="687" font-size="13" fill="#888" stroke="none">Draft a post</text>

    <text x="40" y="960" font-size="11" fill="#999" stroke="none">[Project] Header card + meta grid + 4 info cards + milestone actions</text>
  </g>
</svg>
