<svg xmlns="http://www.w3.org/2000/svg" width="1280" height="1020" viewBox="0 0 1280 1020">
  <g font-family="Helvetica, Arial, sans-serif">
    <rect width="1280" height="1020" fill="#FFFFFF"/>

    <!-- APP SHELL HEADER -->
    <circle cx="56" cy="52" r="24" fill="#FFFFFF" stroke="#1F1F1F" stroke-width="1.3"/>
    <text x="56" y="60" text-anchor="middle" font-size="20" font-style="italic" font-weight="800" fill="#1F1F1F">s</text>
    <rect x="320" y="30" width="640" height="46" rx="23" fill="#F4F4F4"/>
    <rect x="330" y="34" width="100" height="38" rx="19" fill="#FFFFFF"/>
    <rect x="343" y="46" width="14" height="14" rx="4" fill="none" stroke="#1F1F1F" stroke-width="1.2"/><text x="365" y="58" font-size="13" fill="#1F1F1F">Dashboard</text>
    <rect x="436" y="34" width="100" height="38" rx="19" fill="#FFFFFF"/>
    <rect x="449" y="46" width="14" height="14" rx="4" fill="none" stroke="#1F1F1F" stroke-width="1.2"/><text x="471" y="58" font-size="13" fill="#1F1F1F">Fuse</text>
    <rect x="542" y="34" width="100" height="38" rx="19" fill="#FFFFFF"/>
    <rect x="555" y="46" width="14" height="14" rx="4" fill="none" stroke="#1F1F1F" stroke-width="1.2"/><text x="577" y="58" font-size="13" fill="#1F1F1F">Roadmaps</text>
    <rect x="648" y="34" width="100" height="38" rx="19" fill="#1F1F1F"/>
    <rect x="661" y="46" width="14" height="14" rx="4" fill="#FFFFFF"/>
    <text x="683" y="58" font-size="13" font-weight="600" fill="#FFFFFF">Log</text>
    <rect x="664" y="46" width="14" height="14" rx="4" fill="none" stroke="#1F1F1F" stroke-width="1.2"/><text x="686" y="58" font-size="13" fill="#1F1F1F">Resume</text>
    <rect x="770" y="46" width="14" height="14" rx="4" fill="none" stroke="#1F1F1F" stroke-width="1.2"/><text x="792" y="58" font-size="13" fill="#1F1F1F">Connect</text>
    <rect x="1112" y="30" width="128" height="46" rx="23" fill="#F4F4F4"/>
    <circle cx="1138" cy="53" r="17" fill="#D9D9D9"/>
    <text x="1164" y="58" font-size="13" font-weight="600" fill="#1F1F1F">Ada</text>

    <!-- Header -->
    <text x="128" y="170" font-size="44" font-style="italic" font-weight="800" fill="#1F1F1F">Growth Log</text>
    <rect x="922" y="140" width="150" height="42" rx="21" fill="#FFFFFF" stroke="#1F1F1F" stroke-width="1.2"/>
    <text x="997" y="165" text-anchor="middle" font-size="13" font-weight="600" fill="#1F1F1F">↻ Sync GitHub</text>
    <rect x="1084" y="140" width="168" height="42" rx="21" fill="#1F1F1F"/>
    <text x="1168" y="165" text-anchor="middle" font-size="13" font-weight="600" fill="#FFFFFF">+ Log something</text>

    <!-- Filters -->
    <rect x="128" y="206" width="52" height="30" rx="15" fill="#1F1F1F"/><text x="154" y="225" text-anchor="middle" font-size="12" fill="#FFFFFF">All</text>
    <rect x="188" y="206" width="82" height="30" rx="15" fill="#F4F4F4" stroke="#1F1F1F" stroke-width="1"/><text x="229" y="225" text-anchor="middle" font-size="12" fill="#1F1F1F">Verified</text>
    <rect x="278" y="206" width="90" height="30" rx="15" fill="#F4F4F4" stroke="#1F1F1F" stroke-width="1"/><text x="323" y="225" text-anchor="middle" font-size="12" fill="#1F1F1F">Pending</text>
    <rect x="376" y="206" width="116" height="30" rx="15" fill="#F4F4F4" stroke="#1F1F1F" stroke-width="1"/><text x="434" y="225" text-anchor="middle" font-size="12" fill="#1F1F1F">Self-reported</text>

    <!-- Timeline rail -->
    <line x1="178" y1="290" x2="178" y2="930" stroke="#CCCCCC" stroke-width="1.4"/>

    <!-- Entry 1 -->
    <circle cx="178" cy="310" r="6" fill="#1F1F1F"/>
    <rect x="196" y="270" width="862" height="176" rx="20" fill="#F7F7F7" stroke="#1F1F1F" stroke-width="1.2"/>
    <rect x="224" y="288" width="52" height="22" rx="11" fill="#1F1F1F"/><text x="250" y="304" text-anchor="middle" font-size="10" fill="#FFFFFF">Design</text>
    <text x="282" y="304" text-anchor="middle" font-size="11" fill="#999999">×</text>
    <rect x="294" y="288" width="32" height="22" rx="11" fill="#1F1F1F"/><text x="310" y="304" text-anchor="middle" font-size="10" fill="#FFFFFF">AI</text>
    <text x="1030" y="304" text-anchor="end" font-size="12" fill="#666666">Today</text>
    <text x="224" y="344" font-size="18" font-style="italic" font-weight="800" fill="#1F1F1F">Explained week 2 — First artifact</text>
    <text x="224" y="372" font-size="13" fill="#444444">Put the prototype mechanics into my own words — how the AI call drives the interaction.</text>
    <line x1="224" y1="394" x2="1030" y2="394" stroke="#DDDDDD" stroke-width="1"/>
    <rect x="224" y="408" width="92" height="22" rx="11" fill="#1F1F1F"/><text x="270" y="423" text-anchor="middle" font-size="10" fill="#FFFFFF">Design Eng.</text>
    <rect x="324" y="408" width="120" height="22" rx="11" fill="#FFFFFF" stroke="#1F1F1F" stroke-width="0.8" stroke-dasharray="3 2"/><text x="384" y="423" text-anchor="middle" font-size="10" fill="#1F1F1F">Explaining complexity</text>
    <text x="224" y="440" font-size="12" fill="#666666">◇ Self-reported</text>
    <text x="1030" y="440" text-anchor="end" font-size="13" fill="#1F1F1F">Draft a post</text>

    <!-- Entry 2 -->
    <circle cx="178" cy="546" r="6" fill="#1F1F1F"/>
    <rect x="196" y="506" width="862" height="250" rx="20" fill="#F7F7F7" stroke="#1F1F1F" stroke-width="1.2"/>
    <rect x="224" y="524" width="52" height="22" rx="11" fill="#1F1F1F"/><text x="250" y="540" text-anchor="middle" font-size="10" fill="#FFFFFF">Design</text>
    <text x="282" y="540" text-anchor="middle" font-size="11" fill="#999999">×</text>
    <rect x="294" y="524" width="32" height="22" rx="11" fill="#1F1F1F"/><text x="310" y="540" text-anchor="middle" font-size="10" fill="#FFFFFF">AI</text>
    <text x="1030" y="540" text-anchor="end" font-size="12" fill="#666666">Yesterday</text>
    <text x="224" y="580" font-size="18" font-style="italic" font-weight="800" fill="#1F1F1F">Milestone — Product + pitch deck</text>
    <text x="224" y="608" font-size="13" fill="#444444">Shipped the interactive prototype and investor deck to the incubator.</text>
    <line x1="224" y1="630" x2="1030" y2="630" stroke="#DDDDDD" stroke-width="1"/>
    <!-- github graph placeholder -->
    <g transform="translate(224,650)">
      <g fill="#D5D5D5">
        <rect x="0" y="0" width="9" height="9" rx="2"/><rect x="12" y="0" width="9" height="9" rx="2"/><rect x="24" y="12" width="9" height="9" rx="2"/><rect x="36" y="0" width="9" height="9" rx="2"/><rect x="48" y="12" width="9" height="9" rx="2"/><rect x="60" y="24" width="9" height="9" rx="2"/><rect x="72" y="0" width="9" height="9" rx="2"/><rect x="84" y="12" width="9" height="9" rx="2"/>
      </g>
      <g fill="#1F1F1F">
        <rect x="12" y="24" width="9" height="9" rx="2"/><rect x="24" y="36" width="9" height="9" rx="2"/><rect x="36" y="12" width="9" height="9" rx="2"/><rect x="60" y="0" width="9" height="9" rx="2"/><rect x="48" y="24" width="9" height="9" rx="2"/>
      </g>
    </g>
    <text x="224" y="700" font-size="11" fill="#555555">⏱ Verifying in 3 days</text>
    <text x="1030" y="700" text-anchor="end" font-size="13" fill="#1F1F1F">Add link   ·   Draft a post</text>

    <!-- Entry 3 -->
    <circle cx="178" cy="856" r="6" fill="#1F1F1F"/>
    <rect x="196" y="816" width="862" height="140" rx="20" fill="#F7F7F7" stroke="#1F1F1F" stroke-width="1.2"/>
    <text x="224" y="860" font-size="18" font-style="italic" font-weight="800" fill="#1F1F1F">GitHub activity synced</text>
    <text x="224" y="886" font-size="13" fill="#444444">12 contributions pulled in as verified evidence (auto-sync).</text>
    <rect x="880" y="840" width="104" height="26" rx="13" fill="#1F1F1F"/><text x="932" y="857" text-anchor="middle" font-size="11" fill="#FFFFFF">✓ Verified</text>
    <text x="1030" y="886" text-anchor="end" font-size="13" fill="#1F1F1F">Draft a post</text>

    <text x="128" y="990" font-size="12" fill="#888888">[Growth Log] “Log something” / “Verify evidence” / “Sync GitHub” open modals</text>
  </g>
</svg>